<?xml version="1.0" encoding="utf-8"?>
<!-- Generator: Adobe Illustrator 16.0.4, SVG Export Plug-In . SVG Version: 6.00 Build 0)  -->
<!DOCTYPE svg PUBLIC "-//W3C//DTD SVG 1.1//EN" "http://www.w3.org/Graphics/SVG/1.1/DTD/svg11.dtd">
<svg version="1.1" id="Layer_1" xmlns="http://www.w3.org/2000/svg" xmlns:xlink="http://www.w3.org/1999/xlink" x="0px" y="0px" viewBox="0 0 1040 620" enable-background="new 0 0 1040 620" xml:space="preserve">
<g>
	<path d="M971.914,21.705c-8.7,3.095-16.019,10.204-18.895,18.352c-1.034,2.931-1.306,22-1.306,91.7v88l2.607,5.5
		c3.508,7.4,6.764,11.026,12.893,14.358c14.516,7.892,33.299,1.542,40.109-13.558l2.391-5.3v-89.5v-89.5l-2.694-5.1
		C1000.15,23.657,984.802,17.119,971.914,21.705L971.914,21.705z"/>
	<path d="M501.214,21.904c-34.5,3.424-61.165,8.99-86.4,18.036C329.886,70.382,261.609,145.057,238.7,232.557
		c-12.018,45.9-13.839,88.778-5.49,129.2c1.095,5.3,2.003,10.267,2.003,10.95c0,0.888-3.1,1.419-10.7,1.834
		c-11,0.601-25.914,3.752-36.5,7.713c-13.525,5.06-31.634,20.503-40.225,34.303c-5.91,9.494-10.345,23.101-12.225,37.5
		c-2.31,17.7-1.463,62.16,1.432,75.2c3.774,17,7.193,24.797,15.784,36c12.256,15.982,28.834,27.017,48.434,32.236l8.5,2.264h156h156
		l10.5-2.25c5.789-1.24,18.8-3.6,29-5.259c34.7-5.643,56.97-12.436,83.6-25.5c38.9-19.085,74.483-49.168,102.775-86.892
		c23.491-31.321,40.695-70.199,48.94-110.6c5.531-27.101,6.173-33.7,6.076-62.5c-0.086-25.3-0.277-28.023-3.042-43.25l-2.949-16.25
		h11.5c21,0,36.448-3.365,51.1-11.13c26.816-14.212,42.542-39.07,46.1-72.87c1.621-15.4,0.658-61.056-1.487-70.5
		c-2.658-11.7-5.468-18.991-10.638-27.6c-11.627-19.361-26.574-31.81-46.274-38.538c-15.942-5.445-13.101-5.364-184.2-5.207
		C575.813,21.492,503.139,21.713,501.214,21.904L501.214,21.904z M557.114,64.241c50.699,9.016,94.275,31.152,130.899,66.495
		c41.415,39.966,66.334,89.42,74.333,147.521c1.707,12.4,1.707,49.6,0,62c-7.985,58-32.989,107.641-74.333,147.57
		c-20.1,19.413-38.6,32.397-63.3,44.426c-23.178,11.288-46.2,18.61-71,22.582c-15.457,2.476-50.9,2.986-67.4,0.971
		c-82.6-10.09-154.611-60.533-191.935-134.449c-8.635-17.1-13.358-29.101-17.752-45.1c-20.925-76.2-6.053-153.792,41.726-217.7
		c10.017-13.397,33.861-37.057,47.861-47.487c35.396-26.372,74.899-42.58,117.6-48.248
		C500.714,60.578,540.892,61.356,557.114,64.241L557.114,64.241z M829.514,62.744c8.9,2.322,15.543,6.186,22.201,12.913
		c6.65,6.72,10.738,14.2,13.006,23.8c2.149,9.1,2.161,61.865,0.016,70.1c-4.873,18.7-19.314,32.802-37.522,36.641
		c-3.387,0.714-12.55,1.044-23.85,0.859l-18.351-0.3l-3.216-8c-5.368-13.354-15.022-31.4-24.395-45.6
		c-22.771-34.5-43.058-55.631-77.189-80.402c-7.4-5.371-13.93-10.182-14.45-10.647c-0.526-0.472,34.45-0.85,78.55-0.85
		C811.514,61.257,824.696,61.487,829.514,62.744L829.514,62.744z M249.439,419.457c6.577,16.088,20.898,41.6,32.446,57.8
		c21.141,29.658,54.428,60.898,84.328,79.144l5.5,3.356l-77,0.285c-86,0.319-84.635,0.413-96.5-6.608
		c-11.243-6.652-19.022-17.276-22.461-30.677c-1.884-7.342-2.191-61.1-0.397-69.7c2.606-12.5,11.593-25.24,22.358-31.7
		c9.283-5.569,15.8-6.922,33.8-7.017l15.8-0.083L249.439,419.457L249.439,419.457z"/>
	<path d="M49.213,377.94c-2.547,0.936-6.8,3.968-10.1,7.2c-9.544,9.35-9.019,3.017-8.687,104.716l0.287,87.9l2.69,5.1
		c11.078,21,39.691,21.783,51.203,1.4l3.106-5.5l0.25-89.85l0.25-89.851l-2.37-5.2c-3.19-7-6.541-10.698-12.73-14.055
		C66.496,376.213,56.113,375.404,49.213,377.94L49.213,377.94z"/>
	<path class="pump-inner" d="M500.714,123.393c-52.3,4.858-94.205,25.674-114.476,56.864l-4.225,6.5l33.75,33.05l33.75,33.05l-4.2,6.2
		c-7.654,11.299-11.625,21.3-14.653,36.9l-0.446,2.3h-49.5h-49.5v9.3c0,11.322,2.303,31.601,4.997,44
		c5.822,26.8,17.385,51.378,32.083,68.2c6.728,7.7,17.131,16.728,22.92,19.889l4.6,2.512l32.95-33.9
		c31.104-32,33.062-33.819,34.95-32.465c9.648,6.923,23.1,12.729,34.899,15.063l8.601,1.701v49.95v49.95l11.3-0.655
		c42.2-2.444,72.749-11.27,98.4-28.425c13.399-8.963,28.276-24.389,32.518-33.72c1.158-2.548,0.482-3.286-33.218-36.301
		l-34.4-33.699l3.317-4.801c6.346-9.184,10.31-19.399,13.503-34.8l0.58-2.8h50.5h50.5v-9.3c0-29-7.645-62.384-19.693-86
		c-10.511-20.6-27.395-39.694-41.207-46.6l-3.6-1.8l-33.35,34.25l-33.351,34.25l-7.1-4.802c-8.178-5.531-19.7-10.44-28.9-12.314
		l-6.3-1.284l-0.25-50.7l-0.25-50.7l-8.25,0.15C513.381,122.49,505.714,122.928,500.714,123.393L500.714,123.393z M532.313,258.601
		c12.7,4.511,22.572,12.977,28.867,24.756c18.027,33.727-6.967,74.9-45.467,74.9c-13.5,0-25.124-4.605-34.7-13.748
		c-6.895-6.583-11.071-12.852-13.759-20.652c-7.339-21.3,0.277-45.341,18.358-57.953c10.907-7.607,16.601-9.382,30.601-9.54
		C523.714,256.279,527.104,256.75,532.313,258.601L532.313,258.601z"/>
	<path d="M501.714,276.086c-10.454,5.103-16.317,12.171-19.056,22.971c-3.854,15.2,4.056,31.896,18.455,38.955
		c4.854,2.379,6.801,2.745,14.601,2.745s9.76-0.374,14.7-2.804c21.2-10.427,26.1-38.457,9.6-54.917
		c-6.856-6.841-12.6-9.2-23.3-9.568C508.414,273.181,507.247,273.385,501.714,276.086L501.714,276.086z"/>
</g>
</svg>
